<svg width="32" height="32" viewBox="0 0 32 32" fill="none" xmlns="http://www.w3.org/2000/svg">
<path d="M10.0024 0H13.4398V1.43733H11.4398V2.87467H13.4398V4.312H10.0024V0ZM14.1264 0H17.5651V1.25067H15.5651V1.5H17.5651V4.37467H14.1264V3.06267H16.1264V2.812H14.1264V0ZM18.2531 0H21.6891V1.25067H19.6891V1.5H21.6891V4.37467H18.2531V3.06267H20.2531V2.812H18.2531V0Z" fill="white"/>
<path fillRule="evenodd" clipRule="evenodd" d="M15.988 32L6.72933 29.4293L4 6.28931H28L25.272 29.4266L15.988 32ZM9.396 16.764L9.65067 19.6013H19.4867L19.1573 23.2813L15.992 24.1373H15.9893L12.8293 23.284L12.6267 21.0213H9.77733L10.1747 25.4773L15.988 27.0906L21.8107 25.4773L22.52 17.5253L22.5893 16.764L23.1013 11.0186H8.88533L9.144 13.8573H19.992L19.7333 16.764H9.396Z" fill="white"/>
</svg>
