<?xml version="1.0" encoding="UTF-8"?>
<svg id="Layer_1" data-name="Layer 1" xmlns="http://www.w3.org/2000/svg" viewBox="0 0 900 181.45">
  <defs>
    <style>
      .cls-1 {
        fill: #000;
        stroke-width: 0px;
      }
    </style>
  </defs>
  <g>
    <polygon class="cls-1" points="89.94 90.72 37.43 90.72 62.18 59.22 89.94 59.22 89.94 90.72"/>
    <polygon class="cls-1" points="170.2 59.22 89.94 59.22 114.69 27.71 170.2 27.71 170.2 59.22"/>
    <polygon class="cls-1" points="170.2 122.23 65.18 122.23 89.94 90.72 170.2 90.72 170.2 122.23"/>
    <polygon class="cls-1" points="65.18 153.73 12.67 153.73 37.43 122.23 65.18 122.23 65.18 153.73"/>
  </g>
  <g>
    <path class="cls-1" d="M679.36,31.2c-36.83,0-57.74,26.65-57.74,59.52s20.91,59.52,57.74,59.52,57.74-26.65,57.74-59.52-20.91-59.52-57.74-59.52ZM679.36,128.69c-9.4,0-20.86-.74-27.37-6.72-7.58-6.95-8.74-19.97-8.74-31.25s1.61-25.21,9.79-32.18c6.37-5.42,17.42-5.79,26.32-5.79s19.95.37,26.32,5.79c8.18,6.96,9.79,20.38,9.79,32.18,0,11.11-1.02,23.99-8.4,30.93-6.55,6.16-18.14,7.03-27.71,7.03Z"/>
    <path class="cls-1" d="M238.61,147.11h-23.87V58.04l23.02-23.7h58.27v20.73h-36.52c-5.55,0-11.1-.32-16.61-.95l-4.29-.49v31.31l4.29-.49c5.51-.63,11.06-.95,16.61-.95h28.9v20.58h-28.9c-5.55,0-11.1-.32-16.61-.95l-4.29-.49v44.48Z"/>
    <path class="cls-1" d="M493.71,147.11h-72.87V34.34h23.87v68.06c0,4.72-.27,9.44-.8,14.13l-1.36,11.94,5.04-.91c7.3-1.32,14.71-1.98,22.13-1.98h24v21.52Z"/>
    <path class="cls-1" d="M367.39,34.34h-32.85l-42.41,112.77h24.03l8.59-24.19h52.43l8.59,24.19h24.03l-42.41-112.77ZM331.5,103.92l9.54-26.86c3.21-9.03,9.93-29.5,9.93-29.5,0,0,6.6,20.13,9.87,29.32l9.6,27.03h-38.93Z"/>
    <path class="cls-1" d="M772.52,147.11h-23.87V34.34h27.48l29.88,49.02c2.68,4.39,5.21,8.87,7.59,13.43l10.68,20.46-1.78-18.15c-.74-7.54-1.11-15.1-1.11-22.68v-42.09h23.87v112.77h-26.62l-32.53-54.56c-2.86-4.8-5.55-9.7-8.06-14.69l-8.42-16.76,1.4,12.36c.99,8.71,1.48,17.46,1.48,26.23v47.43Z"/>
    <path class="cls-1" d="M588.42,106.65c-.94,5.91-2.86,11.31-6.8,15.01-6.55,6.16-16.7,7.03-26.26,7.03s-20.86-.74-27.37-6.72c-7.58-6.95-8.74-19.97-8.74-31.25s1.61-25.22,9.79-32.18c6.37-5.42,17.42-5.79,26.32-5.79s18.51.37,24.88,5.79c4.19,3.57,6.47,8.84,7.69,14.71h23.53c-4.93-24.35-21.47-42.06-56.1-42.06-36.83,0-57.74,26.65-57.74,59.52s20.91,59.52,57.74,59.52,52.25-18.46,56.5-43.6h-23.44Z"/>
  </g>
  <g>
    <path class="cls-1" d="M864.84,47.08h-1.95v-10.99h-4.15v-1.76h10.26v1.76h-4.15v10.99Z"/>
    <path class="cls-1" d="M876.54,47.08l-4.03-9.74v9.74h-1.79v-12.74h2.4l4.28,10.35,4.26-10.35h2.41v12.74h-1.81v-9.76l-4.05,9.76h-1.67Z"/>
  </g>
</svg>