<svg width="142" height="28" viewBox="0 0 142 28" fill="none" xmlns="http://www.w3.org/2000/svg">
<g id="Frame 3">
<g id="Vector">
<path d="M133.866 23.0625C132.484 23.0625 131.241 22.7823 130.139 22.2218C129.037 21.6613 128.168 20.8486 127.533 19.7836C126.898 18.7187 126.58 17.4389 126.58 15.9442V15.4958C126.58 14.0012 126.898 12.7214 127.533 11.6564C128.168 10.5915 129.037 9.77876 130.139 9.21826C131.241 8.65777 132.484 8.37752 133.866 8.37752C135.249 8.37752 136.491 8.65777 137.594 9.21826C138.696 9.77876 139.565 10.5915 140.2 11.6564C140.835 12.7214 141.153 14.0012 141.153 15.4958V15.9442C141.153 17.4389 140.835 18.7187 140.2 19.7836C139.565 20.8486 138.696 21.6613 137.594 22.2218C136.491 22.7823 135.249 23.0625 133.866 23.0625ZM133.866 19.9238C134.95 19.9238 135.847 19.5781 136.557 18.8868C137.267 18.1769 137.622 17.168 137.622 15.8602V15.5799C137.622 14.2721 137.267 13.2725 136.557 12.5812C135.865 11.8713 134.969 11.5163 133.866 11.5163C132.783 11.5163 131.886 11.8713 131.176 12.5812C130.466 13.2725 130.111 14.2721 130.111 15.5799V15.8602C130.111 17.168 130.466 18.1769 131.176 18.8868C131.886 19.5781 132.783 19.9238 133.866 19.9238Z" fill="white"/>
<path d="M116.634 22.6702V8.76986H120.109V10.3393H120.613C120.819 9.77875 121.155 9.36772 121.622 9.10616C122.108 8.84459 122.668 8.71381 123.304 8.71381H124.985V11.8526H123.248C122.351 11.8526 121.613 12.0955 121.034 12.5812C120.454 13.0483 120.165 13.777 120.165 14.7672V22.6702H116.634Z" fill="white"/>
<path d="M107.114 23.0625C105.862 23.0625 104.9 22.8477 104.227 22.418C103.555 21.9882 103.06 21.5118 102.742 20.9887H102.237V22.6702H98.7624V3.0528H102.294V10.3673H102.798C103.003 10.031 103.274 9.71337 103.611 9.41443C103.966 9.1155 104.423 8.87262 104.984 8.68579C105.563 8.48027 106.273 8.37752 107.114 8.37752C108.235 8.37752 109.272 8.65776 110.225 9.21826C111.177 9.76008 111.943 10.5635 112.523 11.6284C113.102 12.6933 113.391 13.9825 113.391 15.4958V15.9442C113.391 17.4576 113.102 18.7467 112.523 19.8117C111.943 20.8766 111.177 21.6893 110.225 22.2498C109.272 22.7916 108.235 23.0625 107.114 23.0625ZM106.049 19.9798C107.132 19.9798 108.039 19.6342 108.767 18.9429C109.496 18.2329 109.86 17.2053 109.86 15.8601V15.5799C109.86 14.2347 109.496 13.2165 108.767 12.5252C108.057 11.8152 107.151 11.4603 106.049 11.4603C104.965 11.4603 104.059 11.8152 103.33 12.5252C102.602 13.2165 102.237 14.2347 102.237 15.5799V15.8601C102.237 17.2053 102.602 18.2329 103.33 18.9429C104.059 19.6342 104.965 19.9798 106.049 19.9798Z" fill="white"/>
<path d="M81.2436 27.2102V24.0154H94.9758V27.2102H81.2436Z" fill="white"/>
<path d="M62.4972 22.6702V3.0528H69.5314L73.4269 20.148H73.9313V3.0528H77.5745V22.6702H70.5403L66.6448 5.57503H66.1404V22.6702H62.4972Z" fill="white"/>
<path d="M55.1078 22.6702V3.0528H58.8071V22.6702H55.1078Z" fill="white"/>
<path d="M36.7165 22.6702V3.0528H40.4158V11.152H47.7022V3.0528H51.4015V22.6702H47.7022V14.515H40.4158V22.6702H36.7165Z" fill="white"/>
<path d="M25.454 23.0625C23.8473 23.0625 22.4647 22.7729 21.3063 22.1938C20.1667 21.5959 19.2885 20.7552 18.672 19.6715C18.0741 18.5692 17.7752 17.2707 17.7752 15.7761V3.0528H21.4745V15.8882C21.4745 17.0839 21.8108 18.0274 22.4834 18.7187C23.1747 19.41 24.1649 19.7556 25.454 19.7556C26.7432 19.7556 27.724 19.41 28.3966 18.7187C29.0879 18.0274 29.4335 17.0839 29.4335 15.8882V3.0528H33.1328V15.7761C33.1328 17.2707 32.8245 18.5692 32.208 19.6715C31.6101 20.7552 30.732 21.5959 29.5737 22.1938C28.434 22.7729 27.0608 23.0625 25.454 23.0625Z" fill="white"/>
<path d="M2.36809 22.6702L6.06738 6.41578H0L0.812718 3.0528L15.3681 3.0528V6.41578H10.2676L6.56832 22.6702H2.36809Z" fill="white"/>
</g>
</g>
</svg>
