<svg width="113" height="113" viewBox="0 0 113 113" fill="none" xmlns="http://www.w3.org/2000/svg">
<g id="mingcute:sunflower-fill">
<g id="Group">
<path id="Vector" fillRule="evenodd" clipRule="evenodd" d="M42.8882 23.6359C39.6237 21.6111 35.8325 20.5986 31.9931 20.7262C29.2341 20.7921 25.3261 21.2017 23.2074 23.2075C21.2016 25.3262 20.792 29.2341 20.7214 31.9932C20.5967 35.8335 21.6125 39.6248 23.6406 42.8883C19.2712 43.8959 16.0601 46.2312 13.8755 48.5289C11.9733 50.5299 9.49673 53.5809 9.41669 56.5001C9.49673 59.4193 11.9733 62.4702 13.8755 64.4713C16.5012 67.2723 19.8974 69.2333 23.6359 70.1072C21.611 73.3717 20.5985 77.1629 20.7261 81.0023C20.7967 83.766 21.1969 87.6693 23.2074 89.788C25.3261 91.7937 29.2341 92.1987 31.9931 92.2693C35.8325 92.3969 39.6237 91.3843 42.8882 89.3595C43.8958 93.7242 46.2311 96.94 48.5288 99.1199C50.5299 101.022 53.5856 103.499 56.5 103.579C59.4192 103.499 62.4702 101.022 64.4712 99.1199C67.2739 96.4948 69.2366 93.0986 70.1118 89.3595C73.377 91.3834 77.1674 92.3973 81.0069 92.274C83.766 92.2034 87.6739 91.7937 89.7926 89.788C91.7984 87.6693 92.2033 83.7613 92.2739 81.0023C92.4015 77.1629 91.389 73.3717 89.3642 70.1072C93.1032 69.232 96.4994 67.2693 99.1245 64.4666C101.027 62.4655 103.503 59.4145 103.583 56.4954C103.503 53.5762 101.027 50.5252 99.1245 48.5242C96.4982 45.7249 93.1021 43.7656 89.3642 42.893C91.388 39.6278 92.402 35.8375 92.2786 31.9979C92.208 29.2388 91.7984 25.3309 89.7926 23.2122C87.6739 21.2064 83.766 20.7968 81.0069 20.7262C77.1665 20.6014 73.3753 21.6172 70.1118 23.6453C69.2375 19.9046 67.2747 16.5067 64.4712 13.8802C62.4702 11.9734 59.4192 9.49679 56.5 9.41675C53.5809 9.49679 50.5346 11.9734 48.5288 13.8755C45.7278 16.5013 43.7621 19.8974 42.8882 23.6359ZM56.5 65.9167C58.9975 65.9167 61.3926 64.9246 63.1586 63.1587C64.9246 61.3927 65.9167 58.9975 65.9167 56.5001C65.9167 54.0026 64.9246 51.6075 63.1586 49.8415C61.3926 48.0755 58.9975 47.0834 56.5 47.0834C54.0026 47.0834 51.6074 48.0755 49.8414 49.8415C48.0755 51.6075 47.0834 54.0026 47.0834 56.5001C47.0834 58.9975 48.0755 61.3927 49.8414 63.1587C51.6074 64.9246 54.0026 65.9167 56.5 65.9167Z" fill="black"/>
</g>
</g>
</svg>
