<svg width="425" height="73" viewBox="0 0 425 73" fill="none" xmlns="http://www.w3.org/2000/svg">
<path d="M402.549 60.4319C398.391 60.4319 394.655 59.5892 391.34 57.9037C388.025 56.2182 385.413 53.7743 383.503 50.5719C381.593 47.3695 380.637 43.521 380.637 39.0265V37.6781C380.637 33.1835 381.593 29.335 383.503 26.1327C385.413 22.9303 388.025 20.4863 391.34 18.8009C394.655 17.1154 398.391 16.2727 402.549 16.2727C406.706 16.2727 410.442 17.1154 413.757 18.8009C417.072 20.4863 419.684 22.9303 421.594 26.1327C423.504 29.335 424.46 33.1835 424.46 37.6781V39.0265C424.46 43.521 423.504 47.3695 421.594 50.5719C419.684 53.7743 417.072 56.2182 413.757 57.9037C410.442 59.5892 406.706 60.4319 402.549 60.4319ZM402.549 50.9933C405.807 50.9933 408.504 49.9539 410.639 47.8752C412.774 45.7402 413.841 42.7064 413.841 38.7736V37.9309C413.841 33.9982 412.774 30.9924 410.639 28.9137C408.56 26.7787 405.863 25.7113 402.549 25.7113C399.29 25.7113 396.593 26.7787 394.458 28.9137C392.323 30.9924 391.256 33.9982 391.256 37.9309V38.7736C391.256 42.7064 392.323 45.7402 394.458 47.8752C396.593 49.9539 399.29 50.9933 402.549 50.9933Z" fill="black"/>
<path d="M350.728 59.252V17.4525H361.178V22.1718H362.695C363.313 20.4863 364.325 19.2503 365.729 18.4638C367.19 17.6772 368.875 17.2839 370.785 17.2839H375.842V26.7225H370.617C367.92 26.7225 365.701 27.4529 363.959 28.9137C362.218 30.3182 361.347 32.5093 361.347 35.487V59.252H350.728Z" fill="black"/>
<path d="M322.101 60.4319C318.337 60.4319 315.444 59.7858 313.421 58.4936C311.398 57.2014 309.91 55.7688 308.954 54.1957H307.438V59.2521H296.988V0.260742H307.606V22.2561H309.123C309.741 21.2448 310.556 20.2897 311.567 19.3908C312.634 18.4919 314.011 17.7615 315.696 17.1997C317.438 16.5817 319.573 16.2727 322.101 16.2727C325.472 16.2727 328.59 17.1154 331.455 18.8009C334.321 20.4302 336.624 22.846 338.366 26.0484C340.107 29.2508 340.978 33.1273 340.978 37.6781V39.0265C340.978 43.5772 340.107 47.4538 338.366 50.6562C336.624 53.8586 334.321 56.3025 331.455 57.988C328.59 59.6172 325.472 60.4319 322.101 60.4319ZM318.899 51.1618C322.157 51.1618 324.882 50.1224 327.073 48.0437C329.264 45.9088 330.36 42.8188 330.36 38.7736V37.9309C330.36 33.8858 329.264 30.8239 327.073 28.7451C324.938 26.6102 322.213 25.5427 318.899 25.5427C315.64 25.5427 312.915 26.6102 310.724 28.7451C308.533 30.8239 307.438 33.8858 307.438 37.9309V38.7736C307.438 42.8188 308.533 45.9088 310.724 48.0437C312.915 50.1224 315.64 51.1618 318.899 51.1618Z" fill="black"/>
<path d="M244.307 72.9043V63.2972H285.601V72.9043H244.307Z" fill="black"/>
<path d="M187.935 59.2521V0.260742H209.087L220.801 51.6674H222.318V0.260742H233.274V59.2521H212.121L200.407 7.84534H198.89V59.2521H187.935Z" fill="black"/>
<path d="M165.714 59.2521V0.260742H176.838V59.2521H165.714Z" fill="black"/>
<path d="M110.41 59.2521V0.260742H121.534V24.6157H143.445V0.260742H154.569V59.2521H143.445V34.7285H121.534V59.2521H110.41Z" fill="black"/>
<path d="M76.5426 60.4319C71.7109 60.4319 67.5534 59.5611 64.0701 57.8194C60.643 56.0216 58.0024 53.4934 56.1484 50.2348C54.3506 46.9201 53.4517 43.0154 53.4517 38.5208V0.260742H64.5758V38.8579C64.5758 42.4536 65.587 45.2908 67.6096 47.3695C69.6883 49.4483 72.666 50.4876 76.5426 50.4876C80.4191 50.4876 83.3687 49.4483 85.3912 47.3695C87.47 45.2908 88.5094 42.4536 88.5094 38.8579V0.260742H99.6334V38.5208C99.6334 43.0154 98.7064 46.9201 96.8524 50.2348C95.0546 53.4934 92.414 56.0216 88.9307 57.8194C85.5036 59.5611 81.3742 60.4319 76.5426 60.4319Z" fill="black"/>
<path d="M7.12108 59.2521L18.2452 10.3735H0L2.44392 0.260742L46.2134 0.260742V10.3735H30.8756L19.7516 59.2521H7.12108Z" fill="black"/>
</svg>
